<mxfile host="app.diagrams.net" modified="2023-08-04T09:35:16.565Z" agent="Mozilla/5.0 (Windows NT 10.0; Win64; x64) AppleWebKit/537.36 (KHTML, like Gecko) Chrome/115.0.0.0 Safari/537.36 Edg/115.0.1901.188" etag="zYI4HVTC768vt0JxE-eK" version="21.6.3" type="device">
  <diagram name="Page-1" id="gcrCQibGFPCAKmKa00B_">
    <mxGraphModel dx="978" dy="529" grid="0" gridSize="10" guides="1" tooltips="1" connect="1" arrows="1" fold="1" page="0" pageScale="1" pageWidth="1169" pageHeight="827" math="0" shadow="0">
      <root>
        <mxCell id="0" />
        <mxCell id="1" parent="0" />
        <mxCell id="MxXWNBdaxgCqqlo2t-bM-1" value="" style="whiteSpace=wrap;html=1;aspect=fixed;" vertex="1" parent="1">
          <mxGeometry x="28" y="106" width="330" height="330" as="geometry" />
        </mxCell>
        <mxCell id="MxXWNBdaxgCqqlo2t-bM-2" value="Github&lt;br&gt;(Api)" style="rounded=1;whiteSpace=wrap;html=1;" vertex="1" parent="1">
          <mxGeometry x="84" y="128" width="120" height="60" as="geometry" />
        </mxCell>
        <mxCell id="MxXWNBdaxgCqqlo2t-bM-3" value="" style="rounded=1;whiteSpace=wrap;html=1;" vertex="1" parent="1">
          <mxGeometry x="59.5" y="241" width="255.5" height="157" as="geometry" />
        </mxCell>
        <mxCell id="MxXWNBdaxgCqqlo2t-bM-4" value="SQL" style="shape=cylinder3;whiteSpace=wrap;html=1;boundedLbl=1;backgroundOutline=1;size=15;" vertex="1" parent="1">
          <mxGeometry x="73" y="287" width="60" height="80" as="geometry" />
        </mxCell>
        <mxCell id="MxXWNBdaxgCqqlo2t-bM-5" value="&lt;font style=&quot;font-size: 16px;&quot;&gt;Railway&lt;/font&gt;" style="text;html=1;strokeColor=none;fillColor=none;align=center;verticalAlign=middle;whiteSpace=wrap;rounded=0;" vertex="1" parent="1">
          <mxGeometry x="152" y="241" width="60" height="30" as="geometry" />
        </mxCell>
        <mxCell id="MxXWNBdaxgCqqlo2t-bM-7" value="Spring Boot API&lt;br&gt;Compiler" style="rounded=1;whiteSpace=wrap;html=1;" vertex="1" parent="1">
          <mxGeometry x="180" y="297" width="120" height="60" as="geometry" />
        </mxCell>
        <mxCell id="MxXWNBdaxgCqqlo2t-bM-9" value="" style="endArrow=classic;html=1;rounded=0;entryX=0;entryY=0;entryDx=0;entryDy=0;exitX=0.167;exitY=0.967;exitDx=0;exitDy=0;exitPerimeter=0;" edge="1" parent="1" source="MxXWNBdaxgCqqlo2t-bM-2">
          <mxGeometry width="50" height="50" relative="1" as="geometry">
            <mxPoint x="101" y="188" as="sourcePoint" />
            <mxPoint x="103" y="241" as="targetPoint" />
          </mxGeometry>
        </mxCell>
        <mxCell id="MxXWNBdaxgCqqlo2t-bM-11" value="" style="endArrow=classic;html=1;rounded=0;exitX=0.644;exitY=0.006;exitDx=0;exitDy=0;exitPerimeter=0;" edge="1" parent="1">
          <mxGeometry width="50" height="50" relative="1" as="geometry">
            <mxPoint x="175.04199999999992" y="241.942" as="sourcePoint" />
            <mxPoint x="175" y="189" as="targetPoint" />
          </mxGeometry>
        </mxCell>
        <mxCell id="MxXWNBdaxgCqqlo2t-bM-13" value="" style="endArrow=classic;html=1;rounded=0;" edge="1" parent="1">
          <mxGeometry width="50" height="50" relative="1" as="geometry">
            <mxPoint x="134" y="344" as="sourcePoint" />
            <mxPoint x="180" y="344" as="targetPoint" />
          </mxGeometry>
        </mxCell>
        <mxCell id="MxXWNBdaxgCqqlo2t-bM-14" value="" style="endArrow=classic;html=1;rounded=0;entryX=1;entryY=0.5;entryDx=0;entryDy=0;entryPerimeter=0;exitX=0;exitY=0.5;exitDx=0;exitDy=0;" edge="1" parent="1" source="MxXWNBdaxgCqqlo2t-bM-7" target="MxXWNBdaxgCqqlo2t-bM-4">
          <mxGeometry width="50" height="50" relative="1" as="geometry">
            <mxPoint x="137" y="361" as="sourcePoint" />
            <mxPoint x="187" y="311" as="targetPoint" />
          </mxGeometry>
        </mxCell>
        <mxCell id="MxXWNBdaxgCqqlo2t-bM-17" value="&lt;font style=&quot;font-size: 23px;&quot;&gt;Backend&lt;/font&gt;" style="text;html=1;align=center;verticalAlign=middle;resizable=0;points=[];autosize=1;strokeColor=none;fillColor=none;" vertex="1" parent="1">
          <mxGeometry x="139" y="70" width="108" height="40" as="geometry" />
        </mxCell>
        <mxCell id="MxXWNBdaxgCqqlo2t-bM-18" value="&lt;font style=&quot;font-size: 21px;&quot;&gt;Frontend&lt;/font&gt;" style="text;html=1;align=center;verticalAlign=middle;resizable=0;points=[];autosize=1;strokeColor=none;fillColor=none;" vertex="1" parent="1">
          <mxGeometry x="488" y="76" width="102" height="37" as="geometry" />
        </mxCell>
        <mxCell id="MxXWNBdaxgCqqlo2t-bM-19" value="" style="rounded=0;whiteSpace=wrap;html=1;" vertex="1" parent="1">
          <mxGeometry x="436" y="107" width="199" height="330" as="geometry" />
        </mxCell>
        <mxCell id="MxXWNBdaxgCqqlo2t-bM-20" value="(Local) &lt;br&gt;React JS" style="rounded=1;whiteSpace=wrap;html=1;" vertex="1" parent="1">
          <mxGeometry x="481.5" y="137" width="96" height="46" as="geometry" />
        </mxCell>
        <mxCell id="MxXWNBdaxgCqqlo2t-bM-21" value="&lt;br&gt;(ReactJs Compiler)" style="rounded=1;whiteSpace=wrap;html=1;" vertex="1" parent="1">
          <mxGeometry x="467" y="242" width="125" height="94" as="geometry" />
        </mxCell>
        <mxCell id="MxXWNBdaxgCqqlo2t-bM-22" value="&lt;font style=&quot;font-size: 15px;&quot;&gt;netlify&lt;/font&gt;" style="text;html=1;strokeColor=none;fillColor=none;align=center;verticalAlign=middle;whiteSpace=wrap;rounded=0;" vertex="1" parent="1">
          <mxGeometry x="497" y="241" width="60" height="30" as="geometry" />
        </mxCell>
        <mxCell id="MxXWNBdaxgCqqlo2t-bM-24" value="" style="endArrow=classic;html=1;rounded=0;" edge="1" parent="1">
          <mxGeometry width="50" height="50" relative="1" as="geometry">
            <mxPoint x="503" y="182" as="sourcePoint" />
            <mxPoint x="503" y="241" as="targetPoint" />
          </mxGeometry>
        </mxCell>
        <mxCell id="MxXWNBdaxgCqqlo2t-bM-25" value="Uploaded" style="text;html=1;strokeColor=none;fillColor=none;align=center;verticalAlign=middle;whiteSpace=wrap;rounded=0;" vertex="1" parent="1">
          <mxGeometry x="505.5" y="194" width="50.5" height="28" as="geometry" />
        </mxCell>
        <mxCell id="MxXWNBdaxgCqqlo2t-bM-26" value="" style="endArrow=classic;html=1;rounded=0;" edge="1" parent="1">
          <mxGeometry width="50" height="50" relative="1" as="geometry">
            <mxPoint x="359" y="277" as="sourcePoint" />
            <mxPoint x="433" y="277" as="targetPoint" />
          </mxGeometry>
        </mxCell>
        <mxCell id="MxXWNBdaxgCqqlo2t-bM-28" value="port: 8080" style="text;html=1;strokeColor=none;fillColor=none;align=center;verticalAlign=middle;whiteSpace=wrap;rounded=0;" vertex="1" parent="1">
          <mxGeometry x="366" y="251" width="60" height="30" as="geometry" />
        </mxCell>
        <mxCell id="MxXWNBdaxgCqqlo2t-bM-29" value="" style="endArrow=classic;html=1;rounded=0;exitX=1;exitY=0.5;exitDx=0;exitDy=0;" edge="1" parent="1" source="MxXWNBdaxgCqqlo2t-bM-19">
          <mxGeometry width="50" height="50" relative="1" as="geometry">
            <mxPoint x="426" y="256" as="sourcePoint" />
            <mxPoint x="756" y="272" as="targetPoint" />
          </mxGeometry>
        </mxCell>
        <mxCell id="MxXWNBdaxgCqqlo2t-bM-30" value="Local" style="rounded=1;whiteSpace=wrap;html=1;" vertex="1" parent="1">
          <mxGeometry x="258" y="137" width="81" height="45" as="geometry" />
        </mxCell>
        <mxCell id="MxXWNBdaxgCqqlo2t-bM-31" value="" style="endArrow=classic;html=1;rounded=0;entryX=1;entryY=0.5;entryDx=0;entryDy=0;exitX=0;exitY=0.5;exitDx=0;exitDy=0;" edge="1" parent="1" source="MxXWNBdaxgCqqlo2t-bM-30" target="MxXWNBdaxgCqqlo2t-bM-2">
          <mxGeometry width="50" height="50" relative="1" as="geometry">
            <mxPoint x="426" y="256" as="sourcePoint" />
            <mxPoint x="476" y="206" as="targetPoint" />
          </mxGeometry>
        </mxCell>
        <mxCell id="MxXWNBdaxgCqqlo2t-bM-32" value="port: 3000" style="text;html=1;strokeColor=none;fillColor=none;align=center;verticalAlign=middle;whiteSpace=wrap;rounded=0;" vertex="1" parent="1">
          <mxGeometry x="647" y="241" width="60" height="30" as="geometry" />
        </mxCell>
        <mxCell id="MxXWNBdaxgCqqlo2t-bM-33" value="client" style="shape=umlActor;verticalLabelPosition=bottom;verticalAlign=top;html=1;outlineConnect=0;" vertex="1" parent="1">
          <mxGeometry x="759" y="217.5" width="58" height="97" as="geometry" />
        </mxCell>
        <mxCell id="MxXWNBdaxgCqqlo2t-bM-36" value="" style="endArrow=classic;html=1;rounded=0;exitX=0.75;exitY=0;exitDx=0;exitDy=0;" edge="1" parent="1" source="MxXWNBdaxgCqqlo2t-bM-21">
          <mxGeometry width="50" height="50" relative="1" as="geometry">
            <mxPoint x="541" y="243" as="sourcePoint" />
            <mxPoint x="561" y="183" as="targetPoint" />
          </mxGeometry>
        </mxCell>
      </root>
    </mxGraphModel>
  </diagram>
</mxfile>
